<?xml version="1.0" standalone="no"?>
<!DOCTYPE svg PUBLIC "-//W3C//DTD SVG 20010904//EN"
 "http://www.w3.org/TR/2001/REC-SVG-20010904/DTD/svg10.dtd">
<svg version="1.0" xmlns="http://www.w3.org/2000/svg"
 width="612.000000pt" height="612.000000pt" viewBox="0 0 612.000000 612.000000"
 preserveAspectRatio="xMidYMid meet">
<metadata>
Created by potrace 1.14, written by Peter Selinger 2001-2017
</metadata>
<g transform="translate(0.000000,612.000000) scale(0.100000,-0.100000)"
fill="#000000" stroke="none">
<path d="M2768 4755 c-7 -8 -142 -25 -227 -30 -62 -3 -87 -8 -93 -20 -5 -8
-22 -15 -38 -15 -17 0 -30 -5 -30 -11 0 -5 -5 -7 -12 -3 -7 4 -8 3 -4 -5 4 -6
12 -9 17 -6 5 4 9 1 9 -4 0 -6 -6 -11 -14 -11 -8 0 -17 -4 -20 -9 -3 -4 6 -7
21 -5 19 2 23 0 14 -9 -6 -6 -17 -12 -25 -13 -25 -4 -106 -47 -106 -57 0 -5
16 0 35 12 49 29 44 11 -11 -35 -87 -74 -140 -143 -139 -184 0 -8 -6 -21 -15
-28 -11 -10 -11 -11 -1 -6 11 5 13 3 8 -10 -4 -10 -7 -20 -7 -22 0 -3 -4 -2
-10 1 -5 3 -7 0 -4 -8 3 -8 1 -18 -4 -21 -6 -3 -8 -15 -5 -27 4 -12 0 -25 -8
-30 -9 -6 -10 -9 -2 -9 12 0 3 -44 -18 -82 -7 -14 -5 -18 8 -18 14 0 15 -2 4
-9 -10 -6 -10 -10 -1 -16 9 -6 9 -10 -1 -16 -8 -5 -9 -9 -4 -9 6 0 10 -20 9
-45 -1 -25 2 -45 7 -45 5 0 4 -12 -1 -26 -6 -14 -6 -23 -1 -20 5 3 9 -4 9 -17
0 -12 3 -33 7 -47 12 -44 12 -75 -1 -95 -10 -15 -11 -44 -5 -115 5 -52 11
-106 15 -120 3 -14 9 -50 12 -80 3 -30 8 -57 10 -59 2 -2 -3 -15 -10 -30 -20
-38 4 -84 54 -103 8 -3 26 -41 39 -84 37 -124 98 -235 181 -331 29 -33 39 -56
47 -101 5 -32 7 -64 5 -70 -2 -6 -29 -25 -60 -40 -31 -16 -144 -74 -251 -128
-138 -71 -207 -112 -241 -145 -129 -123 -236 -462 -325 -1024 -9 -55 -27 -140
-40 -190 -14 -49 -25 -93 -25 -98 0 -11 3328 -8 3335 3 3 6 1 18 -4 27 -8 14
-11 15 -11 3 0 -9 -6 -6 -16 10 -14 23 -14 23 -9 3 4 -16 2 -22 -7 -20 -7 2
-10 2 -5 0 12 -7 8 -20 -6 -20 -9 0 -13 27 -15 96 -4 171 -36 398 -74 520 -40
128 -130 286 -211 366 -16 17 -56 64 -87 105 -32 41 -91 107 -131 146 -127
122 -349 302 -433 351 -188 110 -225 149 -317 333 -27 56 -61 112 -75 125 -23
22 -24 26 -14 68 l12 44 41 -4 c62 -6 92 21 93 84 1 27 17 93 37 150 54 150
56 263 5 278 -14 5 -17 12 -11 33 3 15 9 29 12 32 7 5 10 19 17 65 3 16 7 44
10 60 3 17 7 54 7 83 1 28 4 52 7 52 3 0 5 46 4 102 -1 76 -6 114 -19 143 -21
46 -26 63 -28 87 -1 9 -3 15 -5 13 -2 -2 -22 14 -43 36 -22 22 -43 37 -48 34
-19 -11 -61 18 -61 42 0 34 -15 58 -63 104 -52 50 -176 107 -259 120 -81 13
-93 15 -151 28 -81 19 -220 34 -229 26z m2082 -3717 c0 -4 -4 -8 -9 -8 -6 0
-12 4 -15 8 -3 5 1 9 9 9 8 0 15 -4 15 -9z"/>
<path d="M4907 1082 c-15 -16 -15 -18 1 -18 10 0 18 8 18 18 0 10 -1 18 -2 18
0 0 -8 -8 -17 -18z"/>
<path d="M4865 1079 c-4 -6 -5 -12 -2 -15 2 -3 7 2 10 11 7 17 1 20 -8 4z"/>
<path d="M4955 1082 c3 -3 -1 -12 -7 -21 -8 -10 -4 -9 10 3 26 23 26 23 7 23
-8 0 -13 -3 -10 -5z"/>
<path d="M4970 1056 c0 -2 8 -10 18 -17 15 -13 16 -12 3 4 -13 16 -21 21 -21
13z"/>
<path d="M4873 1037 c0 -7 9 -14 19 -14 16 -2 16 0 4 13 -18 17 -23 18 -23 1z"/>
<path d="M4900 1046 c0 -2 9 -6 20 -9 11 -3 18 -1 14 4 -5 9 -34 13 -34 5z"/>
</g>
</svg>
